<svg width="40" height="40" viewBox="0 0 40 40" fill="none" xmlns="http://www.w3.org/2000/svg">
<path fill-rule="evenodd" clip-rule="evenodd" d="M38.2813 11.25C38.2813 5.98938 34.0107 1.71875 28.7501 1.71875H11.2501C5.98944 1.71875 1.71881 5.98938 1.71881 11.25V28.75C1.71881 34.0106 5.98944 38.2812 11.2501 38.2812H28.7501C34.0107 38.2812 38.2813 34.0106 38.2813 28.75V11.25ZM36.7188 11.25V28.75C36.7188 33.1481 33.1482 36.7188 28.7501 36.7188H11.2501C6.85194 36.7188 3.28131 33.1481 3.28131 28.75V11.25C3.28131 6.85187 6.85194 3.28125 11.2501 3.28125H28.7501C33.1482 3.28125 36.7188 6.85187 36.7188 11.25Z" fill="black"/>
<path fill-rule="evenodd" clip-rule="evenodd" d="M19.9999 10.9373C14.9981 10.9373 10.9373 14.998 10.9373 19.9999C10.9373 25.0017 14.9981 29.0625 19.9999 29.0625C25.0018 29.0625 29.0625 25.0017 29.0625 19.9999C29.0625 14.998 25.0018 10.9373 19.9999 10.9373ZM19.9999 12.5C24.1391 12.5 27.4998 15.8607 27.4998 19.9999C27.4998 24.139 24.1391 27.4998 19.9999 27.4998C15.8608 27.4998 12.5 24.139 12.5 19.9999C12.5 15.8607 15.8608 12.5 19.9999 12.5Z" fill="black"/>
<path fill-rule="evenodd" clip-rule="evenodd" d="M30.625 6.71863C29.159 6.71863 27.9688 7.90881 27.9688 9.37485C27.9688 10.8409 29.159 12.0311 30.625 12.0311C32.0911 12.0311 33.2812 10.8409 33.2812 9.37485C33.2812 7.90881 32.0911 6.71863 30.625 6.71863ZM30.625 8.28106C31.2287 8.28106 31.7188 8.77121 31.7188 9.37485C31.7188 9.97849 31.2287 10.4686 30.625 10.4686C30.0214 10.4686 29.5312 9.97849 29.5312 9.37485C29.5312 8.77121 30.0214 8.28106 30.625 8.28106Z" fill="black"/>
</svg>
