<svg width="39" height="39" viewBox="0 0 39 39" fill="none" xmlns="http://www.w3.org/2000/svg">
<path d="M38.5313 18.7421C38.5234 22.125 37.7891 25.1093 36.3047 27.8828C34.9063 30.5 32.9766 32.6797 30.5469 34.3984C28.4141 35.9062 26.0781 36.9375 23.5234 37.4687C20.6953 38.0546 17.8672 37.9921 15.0625 37.3203C13.5781 36.9609 12.1563 36.414 10.8203 35.6875C10.5938 35.5625 10.3984 35.5546 10.1563 35.6328C7.21095 36.5781 4.26564 37.5156 1.32032 38.4531C0.984386 38.5625 0.656261 38.664 0.320324 38.789C0.085949 38.875 0.070324 38.789 0.132824 38.5937C0.476574 37.5859 0.812511 36.5781 1.15626 35.5625C1.89064 33.3671 2.62501 31.1718 3.37501 28.9843C3.47657 28.6953 3.32814 28.5078 3.21095 28.3047C2.28907 26.7031 1.63282 25 1.22657 23.2031C0.343761 19.3281 0.656262 15.5312 2.14064 11.8515C3.00001 9.72652 4.22657 7.82028 5.79689 6.13278C7.79689 3.97653 10.1641 2.39059 12.8984 1.32809C15.4531 0.3359 18.0938 -0.0469124 20.8125 0.11715C24.5391 0.343713 27.9297 1.57809 30.9063 3.82809C34.7578 6.73434 37.1797 10.5547 38.1484 15.2968C38.4063 16.5078 38.5 17.7343 38.5313 18.7421ZM19.5078 3.28121C18.7813 3.24996 17.9297 3.3359 17.0781 3.4609C16.7422 3.50778 16.4141 3.57809 16.0859 3.66403C11.0078 4.95309 7.35939 7.98434 5.21095 12.7578C3.96876 15.5156 3.63282 18.4296 4.10157 21.414C4.46876 23.7734 5.34376 25.9453 6.71095 27.9062C6.85939 28.125 6.88282 28.3125 6.79689 28.5546C6.21876 30.25 5.65626 31.9531 5.08595 33.6562C5.0547 33.75 4.96095 33.8593 5.04689 33.9453C5.13282 34.039 5.2422 33.9375 5.33595 33.9062C7.04689 33.3593 8.75782 32.8203 10.4531 32.25C10.8438 32.1172 11.125 32.1796 11.4609 32.3828C15.2969 34.6875 19.3984 35.2968 23.7188 34.1484C27 33.2812 29.7031 31.4922 31.8438 28.8515C33.9141 26.2968 35.0703 23.375 35.3047 20.1093C35.4844 17.6015 35.0938 15.164 34.0938 12.8359C32.8359 9.90621 30.875 7.56246 28.2266 5.82028C25.6328 4.11715 22.7656 3.24215 19.5078 3.28121Z" fill="#A7A7A7"/>
<path d="M10.1797 14.4374C10.2109 12.6796 10.8984 11.2343 12.2422 10.1093C12.625 9.78899 13.0859 9.65618 13.5937 9.74212C13.8125 9.77337 14.0391 9.80462 14.25 9.78118C14.7812 9.74212 15.0859 10.039 15.25 10.4765C15.75 11.789 16.2344 13.1093 16.7266 14.4218C16.8203 14.6718 16.7969 14.8984 16.6797 15.1327C16.375 15.7656 15.8906 16.2577 15.4062 16.7499C14.9844 17.1796 14.9609 17.3202 15.25 17.8437C16.6484 20.3749 18.5781 22.3437 21.25 23.539C21.3828 23.5937 21.5 23.6874 21.625 23.7421C21.9609 23.9062 22.2656 23.8906 22.5469 23.6015C23.0937 23.0468 23.6016 22.4531 24.0938 21.8437C24.4766 21.3671 24.6562 21.2968 25.1953 21.539C26.5078 22.1484 27.7578 22.8593 29.0312 23.5468C29.4531 23.7734 29.5 24.0859 29.4375 24.6562C29.1797 26.9765 27.4063 28.0312 25.3828 28.3671C24.7031 28.4765 24.0625 28.414 23.4219 28.2109C21.5469 27.6171 19.7031 26.9296 18.0469 25.8515C16.5 24.8437 15.1719 23.5859 14.0078 22.1562C12.875 20.7577 11.8672 19.2812 11.0312 17.6796C10.5625 16.7656 10.1797 15.3437 10.1797 14.4374Z" fill="#A7A7A7"/>
</svg>
